# xmcd
# 
# Track frame offsets:
#     200
#     16785
#     47085
#     58727
# 
# Disc length: 1011
# 
# Revision: 5
# Processed by: cddbd v1.5.2PL0 Copyright (c) Steve Scherf et al.
# Submitted via: fre:ac v1.0.31
# 
DISCID=2a03f104
DTITLE=Nirvana - Come As You Are (Single)
DYEAR=1992
DGENRE=Rock
TTITLE0=Come As You Are (LP Version)
TTITLE1=Endless, Nameless
TTITLE2=School (Live)
TTITLE3=Drain You (Live)
EXTD=
EXTT0=
EXTT1=
EXTT2=Recorded Live At The Paramount Theatre, Seattle, Washington 31 October 1991
EXTT3=Recorded Live At The Paramount Theatre, Seattle, Washington 31 October 1991
PLAYORDER=
